<?xml version="1.0" encoding="UTF-8" standalone="no"?>
<!-- Created with Inkscape (http://www.inkscape.org/) -->

<svg
   xmlns:dc="http://purl.org/dc/elements/1.1/"
   xmlns:cc="http://creativecommons.org/ns#"
   xmlns:rdf="http://www.w3.org/1999/02/22-rdf-syntax-ns#"
   xmlns:svg="http://www.w3.org/2000/svg"
   xmlns="http://www.w3.org/2000/svg"
   xmlns:sodipodi="http://sodipodi.sourceforge.net/DTD/sodipodi-0.dtd"
   xmlns:inkscape="http://www.inkscape.org/namespaces/inkscape"
   width="30.77387mm"
   height="30.742344mm"
   viewBox="0 0 30.773871 30.742344"
   version="1.1"
   id="svg10070"
   sodipodi:docname="discord icon.svg"
   inkscape:version="0.92.5 (2060ec1f9f, 2020-04-08)">
  <defs
     id="defs10064">
    <clipPath
       clipPathUnits="userSpaceOnUse"
       id="clipPath43055">
      <rect
         ry="160.7195"
         y="51.336205"
         x="4857.8716"
         height="1162.5377"
         width="1162.5377"
         id="rect43057"
         style="opacity:1;fill:#ffff6e;fill-opacity:1;stroke:none;stroke-width:52.2274704;stroke-miterlimit:4;stroke-dasharray:none" />
    </clipPath>
    <radialGradient
       gradientUnits="userSpaceOnUse"
       gradientTransform="rotate(-90,9852.2666,1885.668)"
       r="702.76868"
       cy="-2507.3672"
       cx="11048.872"
       id="SVGID_201_-1">
      <stop
         id="stop3329-2"
         style="stop-color:#FF7FA6"
         offset="0" />
      <stop
         id="stop3331-4"
         style="stop-color:#FF7CA9;stop-opacity:0.673"
         offset="0.327" />
      <stop
         id="stop3333-6"
         style="stop-color:#FF71B4;stop-opacity:0.3908"
         offset="0.6092" />
      <stop
         id="stop3335-3"
         style="stop-color:#FF5FC5;stop-opacity:0.1262"
         offset="0.8738" />
      <stop
         id="stop3337-1"
         style="stop-color:#FF54D0;stop-opacity:0"
         offset="1" />
    </radialGradient>
    <clipPath
       clipPathUnits="userSpaceOnUse"
       id="clipPath42982">
      <rect
         style="opacity:1;fill:#11272c;fill-opacity:1;stroke:none;stroke-width:53.31944656;stroke-miterlimit:4;stroke-dasharray:none"
         id="rect42984"
         width="1186.8445"
         height="1491.3081"
         x="4858.6167"
         y="-111.33437"
         ry="164.07983" />
    </clipPath>
    <radialGradient
       gradientUnits="userSpaceOnUse"
       gradientTransform="matrix(0.9979,0.0652,0.0652,-0.9979,5883.416,23871.598)"
       r="191.7103"
       cy="16051.505"
       cx="-29093.598"
       id="ellipse28646-3_2_-41">
      <stop
         id="stop5806-4"
         style="stop-color:#CADD65"
         offset="0" />
      <stop
         id="stop5808-2"
         style="stop-color:#ECEC81;stop-opacity:0"
         offset="1" />
    </radialGradient>
    <clipPath
       id="clip0-7-3">
      <rect
         style="fill:#ffffff"
         y="0"
         x="0"
         id="rect38700-7-0"
         height="55"
         width="71" />
    </clipPath>
  </defs>
  <sodipodi:namedview
     id="base"
     pagecolor="#ffffff"
     bordercolor="#666666"
     borderopacity="1.0"
     inkscape:pageopacity="0.0"
     inkscape:pageshadow="2"
     inkscape:zoom="0.64"
     inkscape:cx="143.49484"
     inkscape:cy="247.686"
     inkscape:document-units="mm"
     inkscape:current-layer="layer1"
     showgrid="false"
     inkscape:window-width="1920"
     inkscape:window-height="1017"
     inkscape:window-x="-8"
     inkscape:window-y="-8"
     inkscape:window-maximized="1"
     fit-margin-top="0"
     fit-margin-left="0"
     fit-margin-right="0"
     fit-margin-bottom="0" />
  <metadata
     id="metadata10067">
    <rdf:RDF>
      <cc:Work
         rdf:about="">
        <dc:format>image/svg+xml</dc:format>
        <dc:type
           rdf:resource="http://purl.org/dc/dcmitype/StillImage" />
        <dc:title></dc:title>
      </cc:Work>
    </rdf:RDF>
  </metadata>
  <g
     inkscape:label="Layer 1"
     inkscape:groupmode="layer"
     id="layer1"
     transform="translate(4026.4664,-1446.032)">
    <g
       style="fill:none"
       id="g5748"
       transform="matrix(0.26458333,0,0,0.26458333,-4860.8137,412.56729)">
      <g
         transform="matrix(0.38311688,0,0,0.38311688,4210.6899,1553.9303)"
         id="g38800"
         style="fill:none">
        <g
           style="fill:#ffffff"
           id="g38715"
           transform="matrix(2.0216802,0,0,2.0216802,-2679.5794,6235.4253)">
          <g
             id="g38698"
             clip-path="url(#clip0-7-3)"
             style="fill:#ffffff">
            <path
               id="path38696"
               d="M 60.1045,4.8978 C 55.5792,2.8214 50.7265,1.2916 45.6527,0.41542 45.5603,0.39851 45.468,0.440769 45.4204,0.525289 44.7963,1.6353 44.105,3.0834 43.6209,4.2216 38.1637,3.4046 32.7345,3.4046 27.3892,4.2216 26.905,3.0581 26.1886,1.6353 25.5617,0.525289 25.5141,0.443589 25.4218,0.40133 25.3294,0.41542 20.2584,1.2888 15.4057,2.8186 10.8776,4.8978 10.8384,4.9147 10.8048,4.9429 10.7825,4.9795 1.57795,18.7309 -0.943561,32.1443 0.293408,45.3914 c 0.005597,0.0648 0.041978,0.1268 0.092353,0.1662 6.072899,4.4598 11.955539,7.1673 17.728939,8.9619 0.0924,0.0282 0.1903,-0.0056 0.2491,-0.0817 1.3657,-1.865 2.5831,-3.8315 3.6269,-5.8995 0.0616,-0.1211 0.0028,-0.2648 -0.1231,-0.3127 -1.931,-0.7325 -3.7697,-1.6256 -5.5384,-2.6398 -0.1399,-0.0817 -0.1511,-0.2818 -0.0224,-0.3776 0.3722,-0.2789 0.7445,-0.5691 1.0999,-0.8621 0.0643,-0.0535 0.1539,-0.0648 0.2295,-0.031 11.6196,5.3051 24.1992,5.3051 35.6817,0 0.0756,-0.0366 0.1652,-0.0253 0.2323,0.0282 0.3555,0.293 0.7277,0.586 1.1027,0.8649 0.1287,0.0958 0.1203,0.2959 -0.0196,0.3776 -1.7687,1.0339 -3.6074,1.9073 -5.5412,2.637 -0.1259,0.0479 -0.1819,0.1944 -0.1203,0.3155 1.0662,2.0651 2.2836,4.0316 3.6241,5.8967 0.056,0.0789 0.1567,0.1127 0.2491,0.0845 5.8014,-1.7946 11.684,-4.5021 17.7569,-8.9619 0.0532,-0.0394 0.0868,-0.0986 0.0924,-0.1634 C 72.1747,30.0791 68.2147,16.7757 60.1968,4.9823 60.1772,4.9429 60.1437,4.9147 60.1045,4.8978 Z M 23.7259,37.3253 c -3.4983,0 -6.3808,-3.2117 -6.3808,-7.156 0,-3.9443 2.8266,-7.156 6.3808,-7.156 3.5821,0 6.4367,3.2399 6.3807,7.156 0,3.9443 -2.8266,7.156 -6.3807,7.156 z m 23.5919,0 c -3.4982,0 -6.3807,-3.2117 -6.3807,-7.156 0,-3.9443 2.8265,-7.156 6.3807,-7.156 3.5822,0 6.4367,3.2399 6.3808,7.156 0,3.9443 -2.7986,7.156 -6.3808,7.156 z"
               inkscape:connector-curvature="0"
               style="fill:#ffffff" />
          </g>
        </g>
        <path
           style="opacity:1;fill:#ffffff;fill-opacity:0;stroke:#ffffff;stroke-width:3.9920001;stroke-miterlimit:4;stroke-dasharray:23.95200062, 23.95200062;stroke-dashoffset:0;stroke-opacity:1"
           d="m -2458.0104,6290.7529 a 149.90663,149.90663 0 0 1 -149.9066,149.9067 149.90663,149.90663 0 0 1 -149.9066,-149.9067 149.90663,149.90663 0 0 1 149.9066,-149.9066 149.90663,149.90663 0 0 1 149.9066,149.9066 z"
           id="path38779"
           inkscape:connector-curvature="0" />
      </g>
    </g>
  </g>
</svg>
