<?xml version="1.0" encoding="UTF-8" standalone="no"?>
<!-- Created with Inkscape (http://www.inkscape.org/) -->

<svg
   xmlns:dc="http://purl.org/dc/elements/1.1/"
   xmlns:cc="http://creativecommons.org/ns#"
   xmlns:rdf="http://www.w3.org/1999/02/22-rdf-syntax-ns#"
   xmlns:svg="http://www.w3.org/2000/svg"
   xmlns="http://www.w3.org/2000/svg"
   xmlns:sodipodi="http://sodipodi.sourceforge.net/DTD/sodipodi-0.dtd"
   xmlns:inkscape="http://www.inkscape.org/namespaces/inkscape"
   width="30.77387mm"
   height="30.742344mm"
   viewBox="0 0 30.773871 30.742344"
   version="1.1"
   id="svg10070"
   sodipodi:docname="opensea.svg"
   inkscape:version="0.92.5 (2060ec1f9f, 2020-04-08)">
  <defs
     id="defs10064">
    <clipPath
       clipPathUnits="userSpaceOnUse"
       id="clipPath43055">
      <rect
         ry="160.7195"
         y="51.336205"
         x="4857.8716"
         height="1162.5377"
         width="1162.5377"
         id="rect43057"
         style="opacity:1;fill:#ffff6e;fill-opacity:1;stroke:none;stroke-width:52.2274704;stroke-miterlimit:4;stroke-dasharray:none" />
    </clipPath>
    <radialGradient
       gradientUnits="userSpaceOnUse"
       gradientTransform="rotate(-90,9852.2666,1885.668)"
       r="702.76868"
       cy="-2507.3672"
       cx="11048.872"
       id="SVGID_201_-1">
      <stop
         id="stop3329-2"
         style="stop-color:#FF7FA6"
         offset="0" />
      <stop
         id="stop3331-4"
         style="stop-color:#FF7CA9;stop-opacity:0.673"
         offset="0.327" />
      <stop
         id="stop3333-6"
         style="stop-color:#FF71B4;stop-opacity:0.3908"
         offset="0.6092" />
      <stop
         id="stop3335-3"
         style="stop-color:#FF5FC5;stop-opacity:0.1262"
         offset="0.8738" />
      <stop
         id="stop3337-1"
         style="stop-color:#FF54D0;stop-opacity:0"
         offset="1" />
    </radialGradient>
    <clipPath
       clipPathUnits="userSpaceOnUse"
       id="clipPath42982">
      <rect
         style="opacity:1;fill:#11272c;fill-opacity:1;stroke:none;stroke-width:53.31944656;stroke-miterlimit:4;stroke-dasharray:none"
         id="rect42984"
         width="1186.8445"
         height="1491.3081"
         x="4858.6167"
         y="-111.33437"
         ry="164.07983" />
    </clipPath>
    <radialGradient
       gradientUnits="userSpaceOnUse"
       gradientTransform="matrix(0.9979,0.0652,0.0652,-0.9979,5883.416,23871.598)"
       r="191.7103"
       cy="16051.505"
       cx="-29093.598"
       id="ellipse28646-3_2_-41">
      <stop
         id="stop5806-4"
         style="stop-color:#CADD65"
         offset="0" />
      <stop
         id="stop5808-2"
         style="stop-color:#ECEC81;stop-opacity:0"
         offset="1" />
    </radialGradient>
    <clipPath
       id="clip0-7-3">
      <rect
         style="fill:#ffffff"
         y="0"
         x="0"
         id="rect38700-7-0"
         height="55"
         width="71" />
    </clipPath>
    <clipPath
       id="clip0-7-3-4">
      <rect
         style="fill:#ffffff"
         y="0"
         x="0"
         id="rect38700-7-0-2"
         height="55"
         width="71" />
    </clipPath>
    <clipPath
       id="clip0-7-3-1">
      <rect
         style="fill:#ffffff"
         y="0"
         x="0"
         id="rect38700-7-0-5"
         height="55"
         width="71" />
    </clipPath>
  </defs>
  <sodipodi:namedview
     id="base"
     pagecolor="#ffffff"
     bordercolor="#666666"
     borderopacity="1.0"
     inkscape:pageopacity="0.0"
     inkscape:pageshadow="2"
     inkscape:zoom="0.64"
     inkscape:cx="-85.507021"
     inkscape:cy="299.81476"
     inkscape:document-units="mm"
     inkscape:current-layer="layer1"
     showgrid="false"
     inkscape:window-width="1920"
     inkscape:window-height="1017"
     inkscape:window-x="-8"
     inkscape:window-y="-8"
     inkscape:window-maximized="1"
     fit-margin-top="0"
     fit-margin-left="0"
     fit-margin-right="0"
     fit-margin-bottom="0" />
  <metadata
     id="metadata10067">
    <rdf:RDF>
      <cc:Work
         rdf:about="">
        <dc:format>image/svg+xml</dc:format>
        <dc:type
           rdf:resource="http://purl.org/dc/dcmitype/StillImage" />
        <dc:title></dc:title>
      </cc:Work>
    </rdf:RDF>
  </metadata>
  <g
     inkscape:label="Layer 1"
     inkscape:groupmode="layer"
     id="layer1"
     transform="translate(3965.8763,-1459.8244)">
    <g
       style="fill:none"
       id="g5762"
       transform="matrix(0.26458333,0,0,0.26458333,-4885.6624,426.35973)">
      <g
         id="g38810"
         transform="matrix(0.38311688,0,0,0.38311688,4533.6082,1553.9303)"
         style="fill:none">
        <g
           transform="matrix(2.0216802,0,0,2.0216802,-2679.5794,6235.4253)"
           id="g38806"
           style="fill:#ffffff">
          <g
             style="fill:#ffffff"
             clip-path="url(#clip0-7-3-1)"
             id="g38804" />
        </g>
        <path
           style="opacity:1;fill:#ffffff;fill-opacity:0;stroke:#ffffff;stroke-width:3.9920001;stroke-miterlimit:4;stroke-dasharray:23.95200062, 23.95200062;stroke-dashoffset:0;stroke-opacity:1"
           d="m -2458.0104,6290.7529 a 149.90663,149.90663 0 0 1 -149.9066,149.9067 149.90663,149.90663 0 0 1 -149.9066,-149.9067 149.90663,149.90663 0 0 1 149.9066,-149.9066 149.90663,149.90663 0 0 1 149.9066,149.9066 z"
           id="circle38808"
           inkscape:connector-curvature="0" />
      </g>
      <g
         transform="matrix(1.1369785,0,0,1.1369785,3481.4836,3915.2526)"
         id="g39026"
         style="fill:none">
        <path
           style="fill:#ffffff"
           inkscape:connector-curvature="0"
           d="m 22.2011,46.512 0.1942,-0.3051 11.7063,-18.313 c 0.171,-0.2682 0.5733,-0.2404 0.7027,0.0508 1.9557,4.383 3.6432,9.8339 2.8526,13.2274 -0.3375,1.3962 -1.2621,3.2872 -2.3024,5.0348 -0.1341,0.2543 -0.282,0.504 -0.4392,0.7444 -0.074,0.1109 -0.1988,0.1757 -0.3329,0.1757 H 22.5432 c -0.3236,0 -0.5131,-0.3514 -0.3421,-0.615 z"
           id="path39011" />
        <path
           style="fill:#ffffff"
           inkscape:connector-curvature="0"
           d="m 74.38,49.9149 v 2.8988 c 0,0.1664 -0.1017,0.3144 -0.2496,0.3791 -0.9062,0.3884 -4.0085,1.8124 -5.2984,3.6062 -3.2918,4.5817 -5.8069,11.133 -11.4289,11.133 H 33.949 C 25.6362,67.932 18.9,61.1727 18.9,52.8322 V 52.564 c 0,-0.2219 0.1803,-0.4022 0.4023,-0.4022 H 32.377 c 0.2589,0 0.4485,0.2404 0.4254,0.4947 -0.0925,0.8507 0.0647,1.7199 0.4669,2.5105 0.7768,1.5765 2.3857,2.5613 4.1241,2.5613 H 43.866 V 52.675 h -6.3987 c -0.3282,0 -0.5224,-0.3791 -0.3328,-0.6473 0.0693,-0.1063 0.1479,-0.2173 0.2311,-0.3421 0.6057,-0.8599 1.4702,-2.1961 2.3302,-3.7172 0.5871,-1.0263 1.1558,-2.1221 1.6135,-3.2224 0.0925,-0.1988 0.1665,-0.4022 0.2404,-0.6011 0.1249,-0.3513 0.2543,-0.6796 0.3468,-1.0078 0.0924,-0.2774 0.1664,-0.5687 0.2404,-0.8415 0.2173,-0.9339 0.3098,-1.9233 0.3098,-2.9497 0,-0.4022 -0.0185,-0.8229 -0.0555,-1.2252 -0.0185,-0.4392 -0.074,-0.8784 -0.1295,-1.3176 -0.037,-0.3884 -0.1063,-0.7721 -0.1803,-1.1743 -0.0925,-0.5872 -0.2219,-1.1697 -0.3699,-1.7569 L 41.6607,33.65 C 41.5497,33.2478 41.4573,32.864 41.3278,32.4618 40.9626,31.1996 40.5418,29.9698 40.098,28.8186 39.9362,28.3609 39.7512,27.9217 39.5663,27.4825 39.2935,26.8213 39.0161,26.2203 38.7619,25.6516 38.6324,25.3927 38.5214,25.1569 38.4105,24.9165 38.2857,24.6437 38.1562,24.371 38.0268,24.112 37.9343,23.9132 37.8279,23.7283 37.754,23.5434 l -0.7906,-1.461 c -0.111,-0.1988 0.074,-0.4346 0.2912,-0.3745 l 4.947,1.3408 h 0.0139 c 0.0092,0 0.0139,0.0046 0.0185,0.0046 l 0.6519,0.1803 0.7166,0.2034 0.2635,0.074 V 20.5706 C 43.866,19.1512 45.0034,18 46.4089,18 c 0.7027,0 1.3407,0.2866 1.7984,0.7536 0.4577,0.467 0.7444,1.105 0.7444,1.817 v 4.3644 l 0.527,0.1479 c 0.0417,0.0139 0.0833,0.0324 0.1203,0.0601 0.1294,0.0971 0.3143,0.2405 0.5501,0.4161 0.185,0.148 0.3838,0.3283 0.6242,0.5132 0.4762,0.3838 1.0448,0.8785 1.669,1.4471 0.1664,0.1434 0.3283,0.2913 0.4762,0.4393 0.8045,0.7489 1.706,1.6274 2.566,2.5983 0.2404,0.2727 0.4762,0.5501 0.7166,0.8414 0.2404,0.2959 0.4947,0.5872 0.7166,0.8785 0.2913,0.3883 0.6056,0.7905 0.8784,1.2113 0.1295,0.1988 0.2774,0.4022 0.4023,0.601 0.3513,0.5317 0.6611,1.0819 0.957,1.632 0.1248,0.2543 0.2543,0.5317 0.3652,0.8045 0.3283,0.7351 0.5872,1.4841 0.7536,2.2331 0.0509,0.1618 0.0879,0.3375 0.1064,0.4947 v 0.0369 c 0.0554,0.222 0.0739,0.4578 0.0924,0.6982 0.074,0.7674 0.037,1.5349 -0.1294,2.307 -0.0694,0.3283 -0.1618,0.638 -0.2728,0.9663 -0.111,0.3144 -0.2219,0.6426 -0.3652,0.9524 -0.2774,0.6426 -0.6057,1.2853 -0.9941,1.8863 -0.1248,0.2219 -0.2727,0.4577 -0.4207,0.6796 -0.1618,0.2358 -0.3282,0.4578 -0.4762,0.6751 -0.2034,0.2774 -0.4207,0.5686 -0.6426,0.8275 -0.1988,0.2728 -0.4023,0.5456 -0.6242,0.786 -0.3097,0.3652 -0.6056,0.712 -0.9154,1.0449 -0.1849,0.2173 -0.3837,0.4392 -0.5872,0.638 -0.1988,0.2219 -0.4022,0.4207 -0.5871,0.6056 -0.3098,0.3098 -0.5687,0.5502 -0.786,0.749 l -0.5086,0.467 c -0.0739,0.0647 -0.171,0.1017 -0.2727,0.1017 h -3.9391 v 5.0533 h 4.9562 c 1.1096,0 2.1637,-0.393 3.0144,-1.1142 0.2913,-0.2543 1.5627,-1.3547 3.0653,-3.0144 0.0508,-0.0555 0.1156,-0.0971 0.1895,-0.1156 l 13.6897,-3.9576 c 0.2543,-0.074 0.5132,0.1202 0.5132,0.3884 z"
           id="path39013" />
      </g>
    </g>
  </g>
</svg>
