<?xml version="1.0" encoding="UTF-8" standalone="no"?>
<!-- Created with Inkscape (http://www.inkscape.org/) -->

<svg
   xmlns:dc="http://purl.org/dc/elements/1.1/"
   xmlns:cc="http://creativecommons.org/ns#"
   xmlns:rdf="http://www.w3.org/1999/02/22-rdf-syntax-ns#"
   xmlns:svg="http://www.w3.org/2000/svg"
   xmlns="http://www.w3.org/2000/svg"
   xmlns:sodipodi="http://sodipodi.sourceforge.net/DTD/sodipodi-0.dtd"
   xmlns:inkscape="http://www.inkscape.org/namespaces/inkscape"
   width="30.773762mm"
   height="30.742201mm"
   viewBox="0 0 30.773762 30.742201"
   version="1.1"
   id="svg10070"
   sodipodi:docname="twitter-icon.svg"
   inkscape:version="0.92.5 (2060ec1f9f, 2020-04-08)">
  <defs
     id="defs10064">
    <clipPath
       clipPathUnits="userSpaceOnUse"
       id="clipPath43055">
      <rect
         ry="160.7195"
         y="51.336205"
         x="4857.8716"
         height="1162.5377"
         width="1162.5377"
         id="rect43057"
         style="opacity:1;fill:#ffff6e;fill-opacity:1;stroke:none;stroke-width:52.2274704;stroke-miterlimit:4;stroke-dasharray:none" />
    </clipPath>
    <radialGradient
       gradientUnits="userSpaceOnUse"
       gradientTransform="rotate(-90,9852.2666,1885.668)"
       r="702.76868"
       cy="-2507.3672"
       cx="11048.872"
       id="SVGID_201_-1">
      <stop
         id="stop3329-2"
         style="stop-color:#FF7FA6"
         offset="0" />
      <stop
         id="stop3331-4"
         style="stop-color:#FF7CA9;stop-opacity:0.673"
         offset="0.327" />
      <stop
         id="stop3333-6"
         style="stop-color:#FF71B4;stop-opacity:0.3908"
         offset="0.6092" />
      <stop
         id="stop3335-3"
         style="stop-color:#FF5FC5;stop-opacity:0.1262"
         offset="0.8738" />
      <stop
         id="stop3337-1"
         style="stop-color:#FF54D0;stop-opacity:0"
         offset="1" />
    </radialGradient>
    <clipPath
       clipPathUnits="userSpaceOnUse"
       id="clipPath42982">
      <rect
         style="opacity:1;fill:#11272c;fill-opacity:1;stroke:none;stroke-width:53.31944656;stroke-miterlimit:4;stroke-dasharray:none"
         id="rect42984"
         width="1186.8445"
         height="1491.3081"
         x="4858.6167"
         y="-111.33437"
         ry="164.07983" />
    </clipPath>
    <radialGradient
       gradientUnits="userSpaceOnUse"
       gradientTransform="matrix(0.9979,0.0652,0.0652,-0.9979,5883.416,23871.598)"
       r="191.7103"
       cy="16051.505"
       cx="-29093.598"
       id="ellipse28646-3_2_-41">
      <stop
         id="stop5806-4"
         style="stop-color:#CADD65"
         offset="0" />
      <stop
         id="stop5808-2"
         style="stop-color:#ECEC81;stop-opacity:0"
         offset="1" />
    </radialGradient>
    <clipPath
       id="clip0-7-3">
      <rect
         style="fill:#ffffff"
         y="0"
         x="0"
         id="rect38700-7-0"
         height="55"
         width="71" />
    </clipPath>
  </defs>
  <sodipodi:namedview
     id="base"
     pagecolor="#ffffff"
     bordercolor="#666666"
     borderopacity="1.0"
     inkscape:pageopacity="0.0"
     inkscape:pageshadow="2"
     inkscape:zoom="0.64"
     inkscape:cx="40.712543"
     inkscape:cy="354.21899"
     inkscape:document-units="mm"
     inkscape:current-layer="layer1"
     showgrid="false"
     inkscape:window-width="1920"
     inkscape:window-height="1017"
     inkscape:window-x="-8"
     inkscape:window-y="-8"
     inkscape:window-maximized="1"
     fit-margin-top="0"
     fit-margin-left="0"
     fit-margin-right="0"
     fit-margin-bottom="0" />
  <metadata
     id="metadata10067">
    <rdf:RDF>
      <cc:Work
         rdf:about="">
        <dc:format>image/svg+xml</dc:format>
        <dc:type
           rdf:resource="http://purl.org/dc/dcmitype/StillImage" />
        <dc:title></dc:title>
      </cc:Work>
    </rdf:RDF>
  </metadata>
  <g
     inkscape:label="Layer 1"
     inkscape:groupmode="layer"
     id="layer1"
     transform="translate(3999.2719,-1474.219)">
    <g
       style="fill:none"
       id="g5753"
       transform="matrix(0.26458333,0,0,0.26458333,-4876.3387,440.75423)">
      <path
         style="opacity:1;fill:#ffffff;fill-opacity:0;stroke:#ffffff;stroke-width:1.52940261;stroke-miterlimit:4;stroke-dasharray:9.17641575, 9.17641575;stroke-dashoffset:0;stroke-opacity:1"
         d="m 3430.4437,3964.0239 a 57.431761,57.431761 0 0 1 -57.4317,57.4318 57.431761,57.431761 0 0 1 -57.4318,-57.4318 57.431761,57.431761 0 0 1 57.4318,-57.4317 57.431761,57.431761 0 0 1 57.4317,57.4317 z"
         id="circle38818"
         inkscape:connector-curvature="0" />
      <g
         style="fill:#f9f9f9"
         transform="matrix(0.22340967,0,0,0.22340967,3345.3335,3941.4272)"
         id="Logo_1_">
        <path
           style="fill:#f9f9f9"
           inkscape:connector-curvature="0"
           id="white_background"
           d="m 221.95,51.29 c 0.15,2.17 0.15,4.34 0.15,6.53 0,66.73 -50.8,143.69 -143.69,143.69 v -0.04 C 50.97,201.51 24.1,193.65 1,178.83 c 3.99,0.48 8,0.72 12.02,0.73 22.74,0.02 44.83,-7.61 62.72,-21.66 -21.61,-0.41 -40.56,-14.5 -47.18,-35.07 7.57,1.46 15.37,1.16 22.8,-0.87 C 27.8,117.2 10.85,96.5 10.85,72.46 c 0,-0.22 0,-0.43 0,-0.64 7.02,3.91 14.88,6.08 22.92,6.32 C 11.58,63.31 4.74,33.79 18.14,10.71 c 25.64,31.55 63.47,50.73 104.08,52.76 -4.07,-17.54 1.49,-35.92 14.61,-48.25 20.34,-19.12 52.33,-18.14 71.45,2.19 11.31,-2.23 22.15,-6.38 32.07,-12.26 -3.77,11.69 -11.66,21.62 -22.2,27.93 10.01,-1.18 19.79,-3.86 29,-7.95 -6.78,10.16 -15.32,19.01 -25.2,26.16 z" />
      </g>
    </g>
  </g>
</svg>
