<?xml version="1.0" encoding="UTF-8" standalone="no"?>
<svg
   width="24"
   height="24"
   viewBox="0 0 24 24"
   version="1.1"
   id="svg122"
   sodipodi:docname="iconmonstr-youtube-8.svg"
   inkscape:version="1.1.1 (3bf5ae0d25, 2021-09-20)"
   xmlns:inkscape="http://www.inkscape.org/namespaces/inkscape"
   xmlns:sodipodi="http://sodipodi.sourceforge.net/DTD/sodipodi-0.dtd"
   xmlns="http://www.w3.org/2000/svg"
   xmlns:svg="http://www.w3.org/2000/svg">
  <defs
     id="defs126" />
  <sodipodi:namedview
     id="namedview124"
     pagecolor="#ffffff"
     bordercolor="#666666"
     borderopacity="1.0"
     inkscape:pageshadow="2"
     inkscape:pageopacity="0.0"
     inkscape:pagecheckerboard="0"
     showgrid="false"
     inkscape:zoom="23.835391"
     inkscape:cx="12.166782"
     inkscape:cy="12.85903"
     inkscape:window-width="1920"
     inkscape:window-height="1017"
     inkscape:window-x="-8"
     inkscape:window-y="-8"
     inkscape:window-maximized="1"
     inkscape:current-layer="svg122" />
  <path
     d="M10 9.333l5.333 2.662-5.333 2.672v-5.334zm14-4.333v14c0 2.761-2.238 5-5 5h-14c-2.761 0-5-2.239-5-5v-14c0-2.761 2.239-5 5-5h14c2.762 0 5 2.239 5 5zm-4 7c-.02-4.123-.323-5.7-2.923-5.877-2.403-.164-7.754-.163-10.153 0-2.598.177-2.904 1.747-2.924 5.877.02 4.123.323 5.7 2.923 5.877 2.399.163 7.75.164 10.153 0 2.598-.177 2.904-1.747 2.924-5.877z"
     id="path120"
     style="fill:#ffffff" />
</svg>
